HIERARCHY
ROOT Hips
{
  OFFSET 5.72205e-005 65.662 3.42586
  CHANNELS 6 Xposition Yposition Zposition Zrotation Xrotation Yrotation
  JOINT Chest
  {
    OFFSET 0 8.7983 -4.7612
    CHANNELS 6 Xposition Yposition Zposition Zrotation Xrotation Yrotation
    JOINT Chest2
    {
      OFFSET 0 8.0291 0.4195
      CHANNELS 6 Xposition Yposition Zposition Zrotation Xrotation Yrotation
      JOINT Chest3
      {
        OFFSET 0 9.9351 -2.2114
        CHANNELS 6 Xposition Yposition Zposition Zrotation Xrotation Yrotation
        JOINT Neck
        {
          OFFSET 0 22.3885 -0.4656
          CHANNELS 6 Xposition Yposition Zposition Zrotation Xrotation Yrotation
          JOINT Head
          {
            OFFSET -0.0001 12.643 3.4389
            CHANNELS 6 Xposition Yposition Zposition Zrotation Xrotation Yrotation
            End Site
            {
              OFFSET 0.0001 17.6655 0.5274
            }
          }
        }
        JOINT LeftCollar
        {
          OFFSET 2.2603 21.606 7.4023
          CHANNELS 6 Xposition Yposition Zposition Zrotation Xrotation Yrotation
          JOINT LeftShoulder
          {
            OFFSET 13.5163 -1.1332 -5.0146
            CHANNELS 6 Xposition Yposition Zposition Zrotation Xrotation Yrotation
            JOINT LeftElbow
            {
              OFFSET -0.0995 -28.05 -0.2431
              CHANNELS 6 Xposition Yposition Zposition Zrotation Xrotation Yrotation
              JOINT LeftWrist
              {
                OFFSET 0.0679 -23.3996 -0.1402
                CHANNELS 6 Xposition Yposition Zposition Zrotation Xrotation Yrotation
                JOINT LeftFinger1
                {
                  OFFSET 0.7932 -9.069 2.5189
                  CHANNELS 6 Xposition Yposition Zposition Zrotation Xrotation Yrotation
                  JOINT LeftFinger11
                  {
                    OFFSET -0.8272 -3.3923 0.5977
                    CHANNELS 6 Xposition Yposition Zposition Zrotation Xrotation Yrotation
                    JOINT LeftFinger12
                    {
                      OFFSET -0.5649 -2.3158 0.4082
                      CHANNELS 6 Xposition Yposition Zposition Zrotation Xrotation Yrotation
                      End Site
                      {
                        OFFSET -0.4919 -1.6479 0.2673
                      }
                    }
                  }
                }
                JOINT LeftFinger2
                {
                  OFFSET 0.9159 -9.2044 0.2193
                  CHANNELS 6 Xposition Yposition Zposition Zrotation Xrotation Yrotation
                  JOINT LeftFinger21
                  {
                    OFFSET 0.0117 -4.1944 -0.0248
                    CHANNELS 6 Xposition Yposition Zposition Zrotation Xrotation Yrotation
                    JOINT LeftFinger22
                    {
                      OFFSET 0.0071 -2.3249 -0.0142
                      CHANNELS 6 Xposition Yposition Zposition Zrotation Xrotation Yrotation
                      End Site
                      {
                        OFFSET -0.1475 -2.0882 0.0028
                      }
                    }
                  }
                }
                JOINT LeftFinger3
                {
                  OFFSET 0.6113 -8.7231 -2.0637
                  CHANNELS 6 Xposition Yposition Zposition Zrotation Xrotation Yrotation
                  JOINT LeftFinger31
                  {
                    OFFSET -0.1927 -3.8059 -0.2383
                    CHANNELS 6 Xposition Yposition Zposition Zrotation Xrotation Yrotation
                    JOINT LeftFinger32
                    {
                      OFFSET -0.1091 -2.1688 -0.1362
                      CHANNELS 6 Xposition Yposition Zposition Zrotation Xrotation Yrotation
                      End Site
                      {
                        OFFSET -0.2358 -1.9176 -0.0906
                      }
                    }
                  }
                }
                JOINT LeftFinger4
                {
                  OFFSET -0.6151 -8.0947 -3.5641
                  CHANNELS 6 Xposition Yposition Zposition Zrotation Xrotation Yrotation
                  JOINT LeftFinger41
                  {
                    OFFSET -0.4882 -2.341 -0.6462
                    CHANNELS 6 Xposition Yposition Zposition Zrotation Xrotation Yrotation
                    JOINT LeftFinger42
                    {
                      OFFSET -0.3575 -1.7167 -0.4742
                      CHANNELS 6 Xposition Yposition Zposition Zrotation Xrotation Yrotation
                      End Site
                      {
                        OFFSET -0.4187 -1.5237 -0.3496
                      }
                    }
                  }
                }
                JOINT LeftFinger0
                {
                  OFFSET -1.42 -1.8761 1.4223
                  CHANNELS 6 Xposition Yposition Zposition Zrotation Xrotation Yrotation
                  JOINT LeftFinger01
                  {
                    OFFSET -1.1471 -3.4929 2.6334
                    CHANNELS 6 Xposition Yposition Zposition Zrotation Xrotation Yrotation
                    JOINT LeftFinger02
                    {
                      OFFSET -0.823 -2.3 1.6571
                      CHANNELS 6 Xposition Yposition Zposition Zrotation Xrotation Yrotation
                      End Site
                      {
                        OFFSET -0.5822 -1.6914 1.1582
                      }
                    }
                  }
                }
              }
            }
          }
        }
        JOINT RightCollar
        {
          OFFSET -2.2603 21.606 7.4023
          CHANNELS 6 Xposition Yposition Zposition Zrotation Xrotation Yrotation
          JOINT RightShoulder
          {
            OFFSET -13.5187 -1.1334 -5.0155
            CHANNELS 6 Xposition Yposition Zposition Zrotation Xrotation Yrotation
            JOINT RightElbow
            {
              OFFSET 0.0994 -28.0499 -0.2431
              CHANNELS 6 Xposition Yposition Zposition Zrotation Xrotation Yrotation
              JOINT RightWrist
              {
                OFFSET -0.0679 -23.3996 -0.1402
                CHANNELS 6 Xposition Yposition Zposition Zrotation Xrotation Yrotation
                JOINT RightFinger1
                {
                  OFFSET -0.7932 -9.0691 2.5189
                  CHANNELS 6 Xposition Yposition Zposition Zrotation Xrotation Yrotation
                  JOINT RightFinger11
                  {
                    OFFSET 0.8272 -3.3923 0.5977
                    CHANNELS 6 Xposition Yposition Zposition Zrotation Xrotation Yrotation
                    JOINT RightFinger12
                    {
                      OFFSET 0.565 -2.3158 0.4082
                      CHANNELS 6 Xposition Yposition Zposition Zrotation Xrotation Yrotation
                      End Site
                      {
                        OFFSET 0.4919 -1.6479 0.2673
                      }
                    }
                  }
                }
                JOINT RightFinger2
                {
                  OFFSET -0.916 -9.2044 0.2193
                  CHANNELS 6 Xposition Yposition Zposition Zrotation Xrotation Yrotation
                  JOINT RightFinger21
                  {
                    OFFSET -0.0117 -4.1944 -0.0248
                    CHANNELS 6 Xposition Yposition Zposition Zrotation Xrotation Yrotation
                    JOINT RightFinger22
                    {
                      OFFSET -0.0071 -2.3249 -0.0142
                      CHANNELS 6 Xposition Yposition Zposition Zrotation Xrotation Yrotation
                      End Site
                      {
                        OFFSET 0.1475 -2.0882 0.0028
                      }
                    }
                  }
                }
                JOINT RightFinger3
                {
                  OFFSET -0.6113 -8.7231 -2.0637
                  CHANNELS 6 Xposition Yposition Zposition Zrotation Xrotation Yrotation
                  JOINT RightFinger31
                  {
                    OFFSET 0.1927 -3.8059 -0.2383
                    CHANNELS 6 Xposition Yposition Zposition Zrotation Xrotation Yrotation
                    JOINT RightFinger32
                    {
                      OFFSET 0.1091 -2.1688 -0.1362
                      CHANNELS 6 Xposition Yposition Zposition Zrotation Xrotation Yrotation
                      End Site
                      {
                        OFFSET 0.2358 -1.9176 -0.0906
                      }
                    }
                  }
                }
                JOINT RightFinger4
                {
                  OFFSET 0.6151 -8.0947 -3.564
                  CHANNELS 6 Xposition Yposition Zposition Zrotation Xrotation Yrotation
                  JOINT RightFinger41
                  {
                    OFFSET 0.4882 -2.341 -0.6462
                    CHANNELS 6 Xposition Yposition Zposition Zrotation Xrotation Yrotation
                    JOINT RightFinger42
                    {
                      OFFSET 0.3574 -1.7166 -0.4742
                      CHANNELS 6 Xposition Yposition Zposition Zrotation Xrotation Yrotation
                      End Site
                      {
                        OFFSET 0.4187 -1.5237 -0.3496
                      }
                    }
                  }
                }
                JOINT RightFinger0
                {
                  OFFSET 1.4199 -1.8761 1.4221
                  CHANNELS 6 Xposition Yposition Zposition Zrotation Xrotation Yrotation
                  JOINT RightFinger01
                  {
                    OFFSET 1.1472 -3.4929 2.6336
                    CHANNELS 6 Xposition Yposition Zposition Zrotation Xrotation Yrotation
                    JOINT RightFinger02
                    {
                      OFFSET 0.8229 -2.3 1.6571
                      CHANNELS 6 Xposition Yposition Zposition Zrotation Xrotation Yrotation
                      End Site
                      {
                        OFFSET 0.5822 -1.6914 1.1582
                      }
                    }
                  }
                }
              }
            }
          }
        }
      }
    }
  }
  JOINT RightHip
  {
    OFFSET -9.412 3.9771 -0.7758
    CHANNELS 6 Xposition Yposition Zposition Zrotation Xrotation Yrotation
    JOINT RightKnee
    {
      OFFSET -0.7531 -40.938 0
      CHANNELS 6 Xposition Yposition Zposition Zrotation Xrotation Yrotation
      JOINT RightAnkle
      {
        OFFSET 0 -40.1986 0
        CHANNELS 6 Xposition Yposition Zposition Zrotation Xrotation Yrotation
        JOINT RightToe
        {
          OFFSET 0 -4.4182 9.239
          CHANNELS 6 Xposition Yposition Zposition Zrotation Xrotation Yrotation
          End Site
          {
            OFFSET 0 0 6.1981
          }
        }
      }
    }
  }
  JOINT LeftHip
  {
    OFFSET 9.4119 3.9773 -0.7758
    CHANNELS 6 Xposition Yposition Zposition Zrotation Xrotation Yrotation
    JOINT LeftKnee
    {
      OFFSET 0.7532 -40.9383 0
      CHANNELS 6 Xposition Yposition Zposition Zrotation Xrotation Yrotation
      JOINT LeftAnkle
      {
        OFFSET 0 -40.1986 0
        CHANNELS 6 Xposition Yposition Zposition Zrotation Xrotation Yrotation
        JOINT LeftToe
        {
          OFFSET 0 -4.4182 9.239
          CHANNELS 6 Xposition Yposition Zposition Zrotation Xrotation Yrotation
          End Site
          {
            OFFSET 0 0 6.1981
          }
        }
      }
    }
  }
}
MOTION
Frames:	4
Frame Time:	0.0333333
6.11102 18.7103 49.2833 -0.0140974 0.0111947 -135.03 0 8.7983 -4.7612 -1.65205 4.17667 6.30624 0 8.0291 0.4195 -3.76975 8.14382 12.7797 0 9.9351 -2.2114 -3.76977 8.14385 12.7797 0 22.3885 -0.4656 -0.00233798 9.98816 16.2055 -0.0001 12.643 3.4389 0.135532 -22.5949 9.05832 2.2603 21.606 7.4023 -16.5043 -78.9944 -20.9709 13.5163 -1.1332 -5.0146 41.1782 13.5824 -37.156 -0.0995 -28.05 -0.2431 36.6707 -56.9064 37.7655 0.0679 -23.3996 -0.1402 -14.9048 16.3485 41.0067 0.7932 -9.069 2.5189 0 8.44835e-016 -0 -0.8272 -3.3923 0.5977 -8.44849e-033 2.43511e-015 1.98785e-016 -0.5649 -2.3158 0.4082 -8.36228e-033 2.41026e-015 1.98785e-016 0.9159 -9.2044 0.2193 0 8.44835e-016 -0 0.0117 -4.1944 -0.0248 -0.0128948 0.00223736 8.2239e-005 0.0071 -2.3249 -0.0142 2.38542e-015 -7.45443e-017 -1.98785e-016 0.6113 -8.7231 -2.0637 0 8.44835e-016 -0 -0.1927 -3.8059 -0.2383 -0.0161347 0.00299543 0.000852101 -0.1091 -2.1688 -0.1362 -1.06899e-032 -1.54058e-015 -3.97569e-016 -0.6151 -8.0947 -3.5641 0 8.44835e-016 -0 -0.4882 -2.341 -0.6462 -0.0126927 0.0031563 0.00286495 -0.3575 -1.7167 -0.4742 3.22049e-006 -1.58401e-005 2.01907e-006 -1.42 -1.8761 1.4223 0 8.44835e-016 -0 -1.1471 -3.4929 2.6334 -8.44849e-033 2.43511e-015 1.98785e-016 -0.823 -2.3 1.6571 -8.36228e-033 2.41026e-015 1.98785e-016 -2.2603 21.606 7.4023 -29.6162 -19.2981 -56.9752 -13.5187 -1.1334 -5.0155 -48.9433 -4.57493 -5.89998 0.0994 -28.0499 -0.2431 45.667 -69.7369 30.4552 -0.0679 -23.3996 -0.1402 20.3676 9.49648 -42.0015 -0.7932 -9.0691 2.5189 -5.20123e-006 7.38276e-006 -2.11767e-006 0.8272 -3.3923 0.5977 -7.32493e-006 -1.43542e-005 1.00987e-005 0.565 -2.3158 0.4082 -4.40045e-006 2.81122e-006 -2.08319e-006 -0.916 -9.2044 0.2193 -5.20123e-006 7.38276e-006 -2.11767e-006 -0.0117 -4.1944 -0.0248 0.0129475 0.00231383 -8.65834e-005 -0.0071 -2.3249 -0.0142 -3.90076e-007 -7.69914e-006 1.62423e-006 -0.6113 -8.7231 -2.0637 -5.20123e-006 7.38276e-006 -2.11767e-006 0.1927 -3.8059 -0.2383 0.01631 0.00302611 -0.000867402 0.1091 -2.1688 -0.1362 -2.4049e-006 -1.14634e-006 -1.87112e-006 0.6151 -8.0947 -3.564 -5.20123e-006 7.38276e-006 -2.11767e-006 0.4882 -2.341 -0.6462 0.0145759 0.00367263 -0.00325787 0.3574 -1.7166 -0.4742 -6.00587e-006 -3.15548e-006 -3.91987e-006 1.4199 -1.8761 1.4221 -5.20123e-006 7.38276e-006 -2.11767e-006 1.1472 -3.4929 2.6336 -7.32493e-006 -1.43542e-005 1.00987e-005 0.8229 -2.3 1.6571 -4.40045e-006 2.81122e-006 -2.08319e-006 -9.412 3.9771 -0.7758 -3.1805 -11.0978 -4.99951 -0.7531 -40.938 0 -167.194 58.876 162.872 0 -40.1986 0 -2.67312 16.6153 -10.1468 -7.10543e-015 -4.4182 9.239 -1.52406e-006 -1.31137e-006 -2.72809e-006 9.4119 3.9773 -0.7758 3.81303 -14.9306 5.83239 0.7532 -40.9383 0 170.75 57.1429 -167.167 0 -40.1986 0 -0.95902 29.3017 -15.4837 0 -4.4182 9.239 1.23592e-006 -1.86937e-006 -1.16966e-006 
6.13154 19.0039 49.2817 -0.0140974 0.0111947 -135.03 3.55271e-015 8.7983 -4.7612 -1.4336 3.95187 5.81354 -7.10543e-015 8.0291 0.4195 -3.27332 7.73619 11.765 0 9.9351 -2.2114 -3.27333 7.73622 11.7651 0 22.3885 -0.4656 -0.00217428 9.9882 15.007 -0.0001 12.643 3.4389 0.211273 -23.6592 8.42673 2.2603 21.606 7.4023 -6.68119 -77.7063 -10.0098 13.5163 -1.1332 -5.0146 41.1775 13.5749 -37.1538 -0.0995 -28.05 -0.2431 35.069 -55.8606 36.5176 0.0679 -23.3996 -0.1402 -14.3183 15.3873 40.4168 0.7932 -9.06901 2.5189 -1.59028e-015 -6.70898e-016 1.98785e-016 -0.8272 -3.3923 0.5977 -6.55189e-033 9.44227e-016 3.97569e-016 -0.5649 -2.3158 0.4082 -6.37947e-033 9.19379e-016 3.97569e-016 0.9159 -9.20441 0.2193 -1.59028e-015 -6.70898e-016 1.98785e-016 0.0117 -4.1944 -0.0248 -0.0129376 0.00231811 8.11946e-005 0.0071 -2.3249 -0.0142 -7.95139e-016 5.71506e-016 -1.98785e-016 0.6113 -8.72311 -2.0637 -1.59028e-015 -6.70898e-016 1.98785e-016 -0.1927 -3.8059 -0.2383 -0.0160887 0.00304711 0.000850589 -0.1091 -2.1688 -0.1362 3.38119e-006 7.11127e-006 3.39999e-007 -0.6151 -8.09471 -3.5641 -1.59028e-015 -6.70898e-016 1.98785e-016 -0.4882 -2.341 -0.6462 -0.0126685 0.00308437 0.00284297 -0.3575 -1.7167 -0.4742 7.95139e-016 2.70844e-015 -0 -1.42 -1.8761 1.4223 -1.59028e-015 -6.70898e-016 1.98785e-016 -1.1471 -3.4929 2.6334 -6.55189e-033 9.44227e-016 3.97569e-016 -0.823 -2.3 1.6571 -6.37947e-033 9.19379e-016 3.97569e-016 -2.2603 21.606 7.4023 -29.034 -21.4907 -53.6711 -13.5187 -1.1334 -5.0155 -48.9363 -4.58922 -5.89011 0.0994 -28.0499 -0.2431 44.7175 -69.3764 29.5235 -0.0679 -23.3996 -0.1402 19.8669 11.2042 -40.2564 -0.7932 -9.0691 2.5189 -2.80591e-006 2.60229e-007 -2.65409e-007 0.8272 -3.3923 0.5977 -4.18692e-006 2.30267e-006 -2.91761e-006 0.565 -2.3158 0.4082 -3.79022e-006 1.10155e-006 -4.54031e-006 -0.916 -9.2044 0.2193 -2.80591e-006 2.60229e-007 -2.65409e-007 -0.0117 -4.1944 -0.0248 0.0129444 0.0023098 -9.30043e-005 -0.0071 -2.3249 -0.0142 -1.38144e-006 2.23218e-006 -2.65226e-006 -0.6113 -8.7231 -2.0637 -2.80591e-006 2.60229e-007 -2.65409e-007 0.1927 -3.8059 -0.2383 0.0163448 0.00304465 -0.000880474 0.1091 -2.1688 -0.1362 3.18055e-015 1.59028e-015 -0 0.6151 -8.0947 -3.564 -2.80591e-006 2.60229e-007 -2.65409e-007 0.4882 -2.341 -0.6462 0.0145748 0.0036724 -0.00326104 0.3574 -1.7166 -0.4742 -1.98626e-031 -4.77083e-015 -2.38542e-015 1.4199 -1.8761 1.4221 -2.80591e-006 2.60229e-007 -2.65409e-007 1.1472 -3.4929 2.6336 -4.18692e-006 2.30267e-006 -2.91761e-006 0.8229 -2.3 1.6571 -3.79022e-006 1.10155e-006 -4.54031e-006 -9.412 3.9771 -0.7758 -3.17541 -11.1466 -4.96062 -0.7531 -40.938 7.10543e-015 -167.105 59.2025 162.815 0 -40.1986 0 -2.71445 17.0703 -10.156 -3.55271e-015 -4.4182 9.239 -2.03538e-006 9.08515e-006 -6.7856e-006 9.4119 3.9773 -0.7758 3.80881 -14.9912 5.79127 0.7532 -40.9383 0 170.702 57.4775 -167.146 -7.10543e-015 -40.1986 -3.55271e-015 -0.945502 29.7716 -15.476 7.10543e-015 -4.4182 9.239 -3.18055e-015 3.18055e-015 -6.36111e-015 
6.15205 19.2974 49.2801 -0.0140974 0.0111947 -135.03 0 8.7983 -4.7612 -1.21492 3.72189 5.323 -7.10543e-015 8.0291 0.4195 -2.77994 7.31364 10.7572 -7.10543e-015 9.9351 -2.2114 -2.77995 7.31367 10.7572 0 22.3885 -0.4656 -0.0020134 9.98824 13.8072 -0.0001 12.643 3.4389 0.274805 -24.7256 7.79078 2.2603 21.606 7.4023 0.9676 -76.0975 -1.21909 13.5163 -1.1332 -5.0146 41.1785 13.565 -37.1521 -0.0995 -28.05 -0.2431 33.5433 -54.7938 35.3506 0.0679 -23.3996 -0.1402 -13.7441 14.4191 39.8391 0.7932 -9.069 2.5189 1.59028e-015 5.96354e-016 1.98785e-016 -0.8272 -3.3923 0.5977 -8.34086e-007 6.86781e-005 1.52655e-006 -0.5649 -2.3158 0.4082 8.34084e-007 -6.86781e-005 -1.52655e-006 0.9159 -9.2044 0.2193 1.59028e-015 5.96354e-016 1.98785e-016 0.0117 -4.1944 -0.0248 -0.0127751 0.00230739 8.49778e-005 0.0071 -2.3249 -0.0142 -4.35869e-006 7.88605e-005 -6.15926e-007 0.6113 -8.7231 -2.0637 1.59028e-015 5.96354e-016 1.98785e-016 -0.1927 -3.8059 -0.2383 -0.0161593 0.00303401 0.000865879 -0.1091 -2.1688 -0.1362 5.06952e-006 -4.17176e-006 5.39209e-007 -0.6151 -8.0947 -3.5641 1.59028e-015 5.96354e-016 1.98785e-016 -0.4882 -2.341 -0.6462 -0.0125 0.00307755 0.00279749 -0.3575 -1.7167 -0.4742 -2.48282e-032 -3.57812e-015 -3.97569e-016 -1.42 -1.8761 1.4223 1.59028e-015 5.96354e-016 1.98785e-016 -1.1471 -3.4929 2.6334 -8.34086e-007 6.86781e-005 1.52655e-006 -0.823 -2.3 1.6571 8.34084e-007 -6.86781e-005 -1.52655e-006 -2.2603 21.606 7.4023 -28.3026 -23.6565 -50.2757 -13.5187 -1.1334 -5.0155 -48.9293 -4.60355 -5.88021 0.0994 -28.0499 -0.2431 43.7997 -69.0107 28.6235 -0.0679 -23.3996 -0.1402 19.3088 12.8987 -38.4815 -0.7932 -9.0691 2.5189 3.18055e-015 0 3.18055e-015 0.8272 -3.3923 0.5977 3.18055e-015 3.18055e-015 3.18055e-015 0.565 -2.3158 0.4082 3.18055e-015 7.95139e-016 3.18055e-015 -0.916 -9.2044 0.2193 3.18055e-015 0 3.18055e-015 -0.0117 -4.1944 -0.0248 0.0129485 0.00232765 -8.07217e-005 -0.0071 -2.3249 -0.0142 4.01317e-007 7.92872e-006 -1.62144e-006 -0.6113 -8.7231 -2.0637 3.18055e-015 0 3.18055e-015 0.1927 -3.8059 -0.2383 0.0163247 0.00303257 -0.000872594 0.1091 -2.1688 -0.1362 3.36996e-006 7.83098e-008 6.17689e-006 0.6151 -8.0947 -3.564 3.18055e-015 0 3.18055e-015 0.4882 -2.341 -0.6462 0.0145468 0.0036761 -0.00325942 0.3574 -1.7166 -0.4742 1.75889e-006 5.52777e-006 1.03383e-006 1.4199 -1.8761 1.4221 3.18055e-015 0 3.18055e-015 1.1472 -3.4929 2.6336 3.18055e-015 3.18055e-015 3.18055e-015 0.8229 -2.3 1.6571 3.18055e-015 7.95139e-016 3.18055e-015 -9.412 3.9771 -0.7758 -3.17032 -11.1963 -4.92211 -0.7531 -40.938 -7.10543e-015 -167.015 59.5278 162.757 7.10543e-015 -40.1986 -3.55271e-015 -2.75598 17.5251 -10.165 -3.55271e-015 -4.4182 9.239 -3.18056e-015 7.61005e-006 7.95139e-015 9.4119 3.9773 -0.7758 3.80455 -15.053 5.75041 0.7532 -40.9383 -3.55271e-015 170.655 57.8104 -167.126 0 -40.1986 -3.55271e-015 -0.931753 30.2411 -15.4683 7.10543e-015 -4.4182 9.239 8.68661e-006 -2.662e-005 7.41045e-006 
6.17254 19.591 49.2784 -0.0140974 0.0111947 -135.03 7.10543e-015 8.7983 -4.7612 -0.996183 3.48685 4.83492 7.10543e-015 8.0291 0.4195 -2.29006 6.87646 9.75644 0 9.9351 -2.2114 -2.29007 6.87648 9.75646 0 22.3885 -0.4656 -0.001831 9.98825 12.6064 -0.0001 12.643 3.4389 0.325782 -25.7935 7.14975 2.2603 21.606 7.4023 6.81616 -74.2685 5.77488 13.5163 -1.1332 -5.0146 41.1778 13.5576 -37.15 -0.0995 -28.05 -0.2431 32.0961 -53.71 34.2621 0.0679 -23.3996 -0.1402 -13.1818 13.4448 39.2734 0.7932 -9.06901 2.5189 -7.95139e-016 3.47873e-015 1.98785e-016 -0.8272 -3.3923 0.5977 -7.95139e-016 2.55935e-015 3.97569e-016 -0.5649 -2.3158 0.4082 -7.95139e-016 3.32964e-015 3.97569e-016 0.9159 -9.20441 0.2193 -7.95139e-016 3.47873e-015 1.98785e-016 0.0117 -4.1944 -0.0248 -0.012898 0.00239092 9.19787e-005 0.0071 -2.3249 -0.0142 -7.95139e-016 1.73937e-016 -1.98785e-016 0.6113 -8.72311 -2.0637 -7.95139e-016 3.47873e-015 1.98785e-016 -0.1927 -3.8059 -0.2383 -0.0160157 0.00300268 0.000853784 -0.1091 -2.1688 -0.1362 3.33629e-032 3.2054e-015 -5.96354e-016 -0.6151 -8.09471 -3.5641 -7.95139e-016 3.47873e-015 1.98785e-016 -0.4882 -2.341 -0.6462 -0.0127326 0.00315272 0.00284537 -0.3575 -1.7167 -0.4742 0 4.39811e-015 -0 -1.42 -1.8761 1.4223 -7.95139e-016 3.47873e-015 1.98785e-016 -1.1471 -3.4929 2.6334 -7.95139e-016 2.55935e-015 3.97569e-016 -0.823 -2.3 1.6571 -7.95139e-016 3.32964e-015 3.97569e-016 -2.2603 21.606 7.4023 -27.4144 -25.784 -46.7822 -13.5187 -1.1334 -5.0155 -48.9225 -4.61805 -5.87034 0.0994 -28.0499 -0.2431 42.9126 -68.6396 27.7542 -0.0679 -23.3996 -0.1402 18.6923 14.5771 -36.6753 -0.7932 -9.0691 2.5189 -4.76777e-006 1.21785e-005 -5.13065e-007 0.8272 -3.3923 0.5977 -3.18055e-015 5.56597e-015 2.78299e-015 0.565 -2.3158 0.4082 -2.62349e-006 -9.01013e-007 -1.09615e-006 -0.916 -9.2044 0.2193 -4.76777e-006 1.21785e-005 -5.13065e-007 -0.0117 -4.1944 -0.0248 0.0129238 0.00230233 -8.79174e-005 -0.0071 -2.3249 -0.0142 -3.22806e-006 9.24705e-006 1.33455e-006 -0.6113 -8.7231 -2.0637 -4.76777e-006 1.21785e-005 -5.13065e-007 0.1927 -3.8059 -0.2383 0.0163317 0.0030245 -0.000875138 0.1091 -2.1688 -0.1362 -3.4297e-006 1.37911e-006 2.14476e-006 0.6151 -8.0947 -3.564 -4.76777e-006 1.21785e-005 -5.13065e-007 0.4882 -2.341 -0.6462 0.0145684 0.00366746 -0.00326112 0.3574 -1.7166 -0.4742 6.36111e-015 -7.95139e-016 -1.59028e-015 1.4199 -1.8761 1.4221 -4.76777e-006 1.21785e-005 -5.13065e-007 1.1472 -3.4929 2.6336 -3.18055e-015 5.56597e-015 2.78299e-015 0.8229 -2.3 1.6571 -2.62349e-006 -9.01013e-007 -1.09615e-006 -9.412 3.9771 -0.7758 -3.16522 -11.2471 -4.88395 -0.7531 -40.938 -7.10543e-015 -166.925 59.8516 162.697 -3.55271e-015 -40.1986 0 -2.79776 17.9796 -10.1738 -3.55271e-015 -4.4182 9.239 3.18055e-015 -7.95139e-015 -3.18055e-015 9.4119 3.9773 -0.7758 3.80045 -15.1136 5.71001 0.7532 -40.9383 0 170.606 58.1443 -167.104 0 -40.1986 0 -0.917821 30.7102 -15.4606 -7.10543e-015 -4.4182 9.239 -4.34208e-006 1.84316e-006 4.07693e-006 
